<svg width="41" height="42" viewBox="0 0 41 42" fill="none" xmlns="http://www.w3.org/2000/svg">
<path d="M0.656982 22C0.656982 33.0457 9.61129 42 20.657 42C31.7027 42 40.657 33.0457 40.657 22V20C40.657 8.9543 31.7027 0 20.657 0C9.61129 0 0.656982 8.9543 0.656982 20V22Z" fill="#524153"/>
<path d="M1.65698 22C1.65698 32.4934 10.1636 41 20.657 41C31.1504 41 39.657 32.4934 39.657 22V20C39.657 9.50659 31.1504 1 20.657 1C10.1636 1 1.65698 9.50659 1.65698 20V22Z" stroke="#100B16" stroke-width="2"/>
<path d="M17.3579 21.3271L22.8689 26.8231C22.9566 26.9048 23.0726 26.9493 23.1924 26.9471C23.3123 26.9449 23.4266 26.8962 23.5112 26.8113C23.5958 26.7264 23.6441 26.612 23.6459 26.4922C23.6478 26.3723 23.6029 26.2565 23.5209 26.1691L18.3379 21.0001L23.5209 15.8311C23.6029 15.7436 23.6478 15.6278 23.6459 15.5079C23.6441 15.3881 23.5958 15.2737 23.5112 15.1888C23.4266 15.1039 23.3123 15.0552 23.1924 15.0531C23.0726 15.0509 22.9566 15.0953 22.8689 15.1771L17.3579 20.6771C17.3149 20.72 17.2808 20.7709 17.2576 20.8271C17.2343 20.8832 17.2223 20.9433 17.2223 21.0041C17.2223 21.0648 17.2343 21.125 17.2576 21.1811C17.2808 21.2372 17.3149 21.2881 17.3579 21.3311V21.3271Z" fill="white"/>
</svg>
