<svg width="41" height="42" viewBox="0 0 41 42" fill="none" xmlns="http://www.w3.org/2000/svg">
<path d="M40.657 20C40.657 8.9543 31.7027 0 20.657 0C9.61129 0 0.656982 8.9543 0.656982 20V22C0.656982 33.0457 9.61129 42 20.657 42C31.7027 42 40.657 33.0457 40.657 22V20Z" fill="#524153"/>
<path d="M39.657 20C39.657 9.50659 31.1504 1 20.657 1C10.1636 1 1.65698 9.50659 1.65698 20V22C1.65698 32.4934 10.1636 41 20.657 41C31.1504 41 39.657 32.4934 39.657 22V20Z" stroke="#100B16" stroke-width="2"/>
<path d="M23.956 20.6729L18.445 15.1769C18.3574 15.0952 18.2414 15.0507 18.1215 15.0529C18.0017 15.0551 17.8874 15.1038 17.8028 15.1887C17.7182 15.2736 17.6698 15.388 17.668 15.5078C17.6662 15.6277 17.711 15.7435 17.793 15.8309L22.976 20.9999L17.793 26.1689C17.711 26.2564 17.6662 26.3722 17.668 26.4921C17.6698 26.6119 17.7182 26.7263 17.8028 26.8112C17.8874 26.8961 18.0017 26.9448 18.1215 26.9469C18.2414 26.9491 18.3574 26.9047 18.445 26.8229L23.956 21.3229C23.999 21.28 24.0331 21.2291 24.0564 21.1729C24.0797 21.1168 24.0917 21.0567 24.0917 20.9959C24.0917 20.9352 24.0797 20.875 24.0564 20.8189C24.0331 20.7628 23.999 20.7119 23.956 20.6689V20.6729Z" fill="white"/>
</svg>
